<?xml version="1.0" encoding="UTF-8"?>
<svg clip-rule="evenodd" fill-rule="evenodd" stroke-linejoin="round" stroke-miterlimit="2" version="1.1" viewBox="0 0 128 128" xml:space="preserve" xmlns="http://www.w3.org/2000/svg">
    <path d="m114 22c0-4.415-3.585-8-8-8h-84c-4.415 0-8 3.585-8 8v84c0 4.415 3.585 8 8 8h84c4.415 0 8-3.585 8-8v-84z" fill="#77767b"/>
    <path d="m114 42c0-4.415-3.585-8-8-8h-84c-4.415 0-8 3.585-8 8v56c0 4.415 3.585 8 8 8h84c4.415 0 8-3.585 8-8v-56z" fill="#c0bfbc"/>
    <rect x="28" y="42" width="72" height="40" fill="#241f31"/>
    <path d="m36 81.96c0.01-15.433 12.553-27.96 28-27.96s27.99 12.527 28 27.96h-56z" fill="#1c71d8"/>
    <g fill="#2ec27e">
        <path d="m46.718 60h1.308c2.196 0.014 3.974 1.801 3.974 4 0.011 2.198 1.799 3.98 4 3.98 2.208-0 4 1.792 4 4-0 2.199-1.778 3.986-3.974 4h-0.026c-2.208-0-4 1.792-4 4-0 0.734 0.198 1.422 0.6 1.98h-9.2c0.402-0.558 0.6-1.246 0.6-1.98 0-2.208-1.792-4-4-4h-0.026c-1.188-8e-3 -2.255-0.535-2.952-1.392 1.589-5.857 5.043-10.949 9.696-14.588z"/>
        <path d="m52.07 56.699c3.61-1.741 7.659-2.699 11.93-2.699 4.27 0 8.317 0.957 11.928 2.698-0.332 1.866-1.966 3.282-3.928 3.282v0.02c-0.444 1e-3 -0.886 0.073-1.306 0.218-0.556 0.192-1.067 0.509-1.488 0.92-0.438 0.428-0.776 0.956-0.98 1.533-0.147 0.419-0.222 0.86-0.226 1.303v0.021c-8e-3 2.201-1.797 3.985-4 3.985-2.206-0-3.997-1.789-4-3.995-8e-3 -2.201-1.797-3.985-4-3.985h-0.026c-1.957-0.012-3.582-1.433-3.904-3.301z"/>
        <path d="m81.282 60c6.525 5.101 10.712 13.046 10.718 21.96h-24v-9.986c0.014-2.196 1.801-3.974 4-3.974h0.026c2.196-0.014 3.974-1.801 3.974-4v-0.026c0.014-2.196 1.801-3.974 4-3.974h1.282z"/>
    </g>
    <rect x="44" y="50" width="8" height="8" fill="#f6f5f4"/>
    <rect x="44" y="58" width="8" height="8" fill="#241f31"/>
    <rect x="44" y="66" width="8" height="8" fill="#f6f5f4"/>
    <rect x="44" y="74" width="8" height="8" fill="#241f31"/>
    <rect x="52" y="58" width="8" height="8" fill="#f6f5f4"/>
    <rect x="52" y="66" width="8" height="8" fill="#241f31"/>
    <rect x="68" y="66" width="24" height="8" fill="#f6f5f4"/>
    <rect x="68" y="74" width="24" height="8" fill="#241f31"/>
    <rect x="28" y="89.96" width="30" height="8" fill="#241f31"/>
    <rect x="92" y="89.96" width="8" height="8" display="none" fill="#ff7800"/>
    <path d="m84.334 106h12.979c1.7154 0 2.6865-1.0519 2.6865-2.5893 0-1.5698-0.97101-2.5894-2.6865-2.5894h-7.412v-0.12947l4.2562-3.6736c3.6251-3.1396 5.2434-4.7741 5.2434-7.9137 0-4.2401-3.6251-7.1045-9.3055-7.1045-4.0782 0-7.3635 1.7316-8.5934 4.5152-0.21038 0.4855-0.30748 0.98719-0.30748 1.5212 0 1.6507 1.0681 2.6703 2.8159 2.6703 1.3109 0 2.1362-0.4855 3.0425-1.8125 0.8739-1.2623 1.7154-1.8287 2.9454-1.8287 1.6669 0 2.7997 1.0196 2.7997 2.4922 0 1.3918-0.74444 2.4113-3.3662 4.6608l-6.4248 5.5024c-1.2947 1.0843-1.8773 2.0553-1.8773 3.3176 0 1.7154 0.971 2.9616 3.2043 2.9616z" fill="#ff7800" stroke-linecap="square" stroke-miterlimit="0" stroke-width="2.0715" aria-label="2"/>
</svg>
